<?xml version="1.0" ?><svg data-name="Layer 2" id="Layer_2" viewBox="0 0 2000 2000" xmlns="http://www.w3.org/2000/svg"><defs><style>.cls-1{fill:#3171ad;}.cls-2{fill:#11589e;}.cls-3{fill:#f8881b;}.cls-4{fill:#f08000;}.cls-5{fill:#f4c23f;}.cls-6{fill:#fad564;}.cls-7{fill:#f4a93f;}.cls-8{fill:#cf6b00;}.cls-9{fill:#67baeb;}.cls-10{fill:#46a1f8;}.cls-11{fill:#4d4c78;}.cls-12{fill:#323150;}.cls-13{fill:#c8c2e9;}.cls-14{fill:#64639c;}.cls-15{fill:#83d0fb;}</style></defs><title/><path class="cls-1" d="M434.8,585.3h934.3a156.9,156.9,0,0,1,156.9,156.9v45.4a0,0,0,0,1,0,0H434.8A101.1,101.1,0,0,1,333.7,686.4v0A101.1,101.1,0,0,1,434.8,585.3Z"/><path class="cls-2" d="M550.3,740.2A101.2,101.2,0,0,1,449.1,639h0a100.6,100.6,0,0,1,15.5-53.7H434.8A101.1,101.1,0,0,0,333.7,686.4h0A101.2,101.2,0,0,0,434.8,787.6H1526.1V740.2Z"/><path class="cls-2" d="M1300.9,727.6a358.8,358.8,0,0,0,28.2-140v-2.3H610c0,.8-.1,1.6-.1,2.3a358.9,358.9,0,0,0,28.3,140,368.7,368.7,0,0,0,32.4,60h597.9A368.7,368.7,0,0,0,1300.9,727.6Z"/><circle class="cls-3" cx="969.5" cy="587.6" r="303.6"/><circle class="cls-4" cx="969.5" cy="587.6" r="268.3"/><circle class="cls-5" cx="969.5" cy="587.6" r="238"/><path class="cls-6" d="M1185.5,537.9c5.6,0,11.2-.3,16.7-.7C1179.9,434,1090.8,355.7,982.4,349.9,990.4,455.1,1078.3,537.9,1185.5,537.9Z"/><path class="cls-7" d="M960,810.6a35.1,35.1,0,0,1-35.1-35V733.2h-65a35.1,35.1,0,0,1,0-70.1h146.9a18.1,18.1,0,0,0,0-36.2H913a88.2,88.2,0,0,1,0-176.3h11.9V422.7a35.1,35.1,0,1,1,70.1,0v27.9h65a35.1,35.1,0,0,1,0,70.1H913a18.1,18.1,0,0,0,0,36.1h93.8a88.2,88.2,0,0,1,0,176.4H995v42.4A35,35,0,0,1,960,810.6Z"/><path class="cls-8" d="M1013.3,551.9H919.6a24.6,24.6,0,0,1,0-49.2h146.9a28.6,28.6,0,0,0,0-57.1H995V411.2a28.6,28.6,0,1,0-57.1,0v34.4H919.6a81.7,81.7,0,1,0,0,163.3h93.7a24.7,24.7,0,0,1,0,49.3H866.4a28.5,28.5,0,1,0,0,57h71.5v48.9a28.6,28.6,0,0,0,57.1,0V715.2h18.3a81.7,81.7,0,0,0,0-163.3Z"/><path class="cls-9" d="M1425,787.6H434.8A101.2,101.2,0,0,1,333.7,686.4v908.8a92.9,92.9,0,0,0,93,92.9H1582.4a92.9,92.9,0,0,0,93-92.9V880.6a93,93,0,0,0-93-93Z"/><path class="cls-10" d="M525.3,1540.5a93,93,0,0,1-93-93V787.6a101.2,101.2,0,0,1-98.6-101.2v908.8a92.9,92.9,0,0,0,93,92.9H1582.4a92.9,92.9,0,0,0,93-92.9v-54.7Z"/><path class="cls-10" d="M1675.4,1088.2H1306.5a147.2,147.2,0,0,0-147.2,147.2h0a147.2,147.2,0,0,0,147.2,147.2h368.9Z"/><path class="cls-11" d="M1320.6,1088.2h378.2a58.2,58.2,0,0,1,58.2,58.2v152.9a58.2,58.2,0,0,1-58.2,58.2H1320.6A134.6,134.6,0,0,1,1186,1222.8v0a134.6,134.6,0,0,1,134.6-134.6Z"/><path class="cls-12" d="M1720.4,1321.9H1342.2a134.6,134.6,0,0,1-134.6-134.6h0a134.4,134.4,0,0,1,10.1-51.3,134.1,134.1,0,0,0-31.7,86.8h0a134.6,134.6,0,0,0,134.6,134.6h378.2a58.3,58.3,0,0,0,57.3-47.7A58.3,58.3,0,0,1,1720.4,1321.9Z"/><circle class="cls-13" cx="1338.6" cy="1222.8" r="49.7"/><rect class="cls-14" height="71.01" rx="35.5" ry="35.5" width="266.3" x="1438.1" y="1089.3"/><rect class="cls-15" height="158.63" rx="79.3" ry="79.3" width="671.4" x="745.9" y="787.6"/></svg>